<mxfile host="app.diagrams.net" agent="Mozilla/5.0 (Windows NT 10.0; Win64; x64) AppleWebKit/537.36 (KHTML, like Gecko) Chrome/137.0.0.0 Safari/537.36" version="27.1.6">
  <diagram name="Página-1" id="nAZUWouQAm9b8Z7TDGsY">
    <mxGraphModel grid="1" page="1" gridSize="10" guides="1" tooltips="1" connect="1" arrows="1" fold="1" pageScale="1" pageWidth="827" pageHeight="1169" math="0" shadow="0">
      <root>
        <mxCell id="0" />
        <mxCell id="1" parent="0" />
        <mxCell id="ujWQ7ZXlaVEJHCrYgVqE-10" value="" style="edgeStyle=orthogonalEdgeStyle;rounded=0;orthogonalLoop=1;jettySize=auto;html=1;" edge="1" parent="1" source="auY8IGYgyxqj8WZNgKyZ-1" target="auY8IGYgyxqj8WZNgKyZ-11">
          <mxGeometry relative="1" as="geometry">
            <Array as="points">
              <mxPoint x="120" y="190" />
              <mxPoint x="120" y="190" />
            </Array>
          </mxGeometry>
        </mxCell>
        <mxCell id="auY8IGYgyxqj8WZNgKyZ-1" value="&lt;b&gt;Datos&lt;/b&gt;" style="rounded=1;whiteSpace=wrap;html=1;" vertex="1" parent="1">
          <mxGeometry x="50" y="100" width="140" height="60" as="geometry" />
        </mxCell>
        <mxCell id="auY8IGYgyxqj8WZNgKyZ-2" value="&lt;b&gt;Introducción&lt;/b&gt;" style="rounded=1;whiteSpace=wrap;html=1;" vertex="1" parent="1">
          <mxGeometry x="250" y="100" width="120" height="60" as="geometry" />
        </mxCell>
        <mxCell id="auY8IGYgyxqj8WZNgKyZ-3" value="&lt;b&gt;Preprocesamiento&lt;/b&gt;" style="rounded=1;whiteSpace=wrap;html=1;" vertex="1" parent="1">
          <mxGeometry x="430" y="100" width="120" height="60" as="geometry" />
        </mxCell>
        <mxCell id="auY8IGYgyxqj8WZNgKyZ-4" value="&lt;b&gt;Resultados&lt;/b&gt;" style="rounded=1;whiteSpace=wrap;html=1;" vertex="1" parent="1">
          <mxGeometry x="610" y="400" width="120" height="60" as="geometry" />
        </mxCell>
        <mxCell id="auY8IGYgyxqj8WZNgKyZ-5" value="" style="endArrow=classic;html=1;rounded=0;" edge="1" parent="1">
          <mxGeometry width="50" height="50" relative="1" as="geometry">
            <mxPoint x="489.5" y="160" as="sourcePoint" />
            <mxPoint x="489.5" y="220" as="targetPoint" />
          </mxGeometry>
        </mxCell>
        <mxCell id="auY8IGYgyxqj8WZNgKyZ-6" value="" style="endArrow=classic;html=1;rounded=0;" edge="1" parent="1">
          <mxGeometry width="50" height="50" relative="1" as="geometry">
            <mxPoint x="309.5" y="160" as="sourcePoint" />
            <mxPoint x="309.5" y="220" as="targetPoint" />
          </mxGeometry>
        </mxCell>
        <mxCell id="auY8IGYgyxqj8WZNgKyZ-7" value="" style="endArrow=classic;html=1;rounded=0;exitX=0.5;exitY=1;exitDx=0;exitDy=0;entryX=0.5;entryY=0;entryDx=0;entryDy=0;" edge="1" parent="1" source="auY8IGYgyxqj8WZNgKyZ-4" target="auY8IGYgyxqj8WZNgKyZ-10">
          <mxGeometry width="50" height="50" relative="1" as="geometry">
            <mxPoint x="669.5" y="515" as="sourcePoint" />
            <mxPoint x="669.5" y="575" as="targetPoint" />
          </mxGeometry>
        </mxCell>
        <mxCell id="auY8IGYgyxqj8WZNgKyZ-8" value="&lt;div&gt;* Normalización&lt;/div&gt;&lt;div&gt;* limpieza de datos&lt;/div&gt;&lt;div&gt;* Resultados estadísticos&lt;/div&gt;&lt;div&gt;*&amp;nbsp;&amp;nbsp;&lt;/div&gt;" style="rounded=1;whiteSpace=wrap;html=1;" vertex="1" parent="1">
          <mxGeometry x="430" y="220" width="120" height="140" as="geometry" />
        </mxCell>
        <mxCell id="auY8IGYgyxqj8WZNgKyZ-9" value="Identificamos nuestro problema y proponemos un trabajo rico en contexto astronómico.&amp;nbsp;&amp;nbsp;" style="rounded=1;whiteSpace=wrap;html=1;" vertex="1" parent="1">
          <mxGeometry x="250" y="220" width="120" height="140" as="geometry" />
        </mxCell>
        <mxCell id="auY8IGYgyxqj8WZNgKyZ-10" value="Análisis de los resultados usando métricas estándar&lt;div&gt;&lt;br&gt;&lt;/div&gt;" style="rounded=1;whiteSpace=wrap;html=1;" vertex="1" parent="1">
          <mxGeometry x="610" y="515" width="120" height="140" as="geometry" />
        </mxCell>
        <mxCell id="auY8IGYgyxqj8WZNgKyZ-11" value="&lt;div&gt;Datos sínteticos y del ML repository&lt;/div&gt;&lt;div&gt;&lt;br&gt;&lt;/div&gt;&lt;div&gt;&lt;br&gt;&lt;/div&gt;&lt;div&gt;&amp;nbsp;&lt;/div&gt;" style="rounded=1;whiteSpace=wrap;html=1;" vertex="1" parent="1">
          <mxGeometry x="60" y="220" width="120" height="140" as="geometry" />
        </mxCell>
        <mxCell id="auY8IGYgyxqj8WZNgKyZ-15" value="Chi cuadrado" style="ellipse;whiteSpace=wrap;html=1;aspect=fixed;" vertex="1" parent="1">
          <mxGeometry x="520" y="680" width="80" height="80" as="geometry" />
        </mxCell>
        <mxCell id="auY8IGYgyxqj8WZNgKyZ-16" value="F1 score" style="ellipse;whiteSpace=wrap;html=1;aspect=fixed;" vertex="1" parent="1">
          <mxGeometry x="630" y="680" width="80" height="80" as="geometry" />
        </mxCell>
        <mxCell id="auY8IGYgyxqj8WZNgKyZ-17" value="Pérdidas y matrices de confusión" style="ellipse;whiteSpace=wrap;html=1;aspect=fixed;" vertex="1" parent="1">
          <mxGeometry x="740" y="680" width="80" height="80" as="geometry" />
        </mxCell>
        <mxCell id="auY8IGYgyxqj8WZNgKyZ-21" value="&lt;b&gt;Modelo&lt;/b&gt;" style="rounded=1;whiteSpace=wrap;html=1;" vertex="1" parent="1">
          <mxGeometry x="610" y="100" width="120" height="60" as="geometry" />
        </mxCell>
        <mxCell id="auY8IGYgyxqj8WZNgKyZ-23" value="" style="edgeStyle=orthogonalEdgeStyle;rounded=0;orthogonalLoop=1;jettySize=auto;html=1;exitX=1;exitY=0.5;exitDx=0;exitDy=0;" edge="1" parent="1" source="auY8IGYgyxqj8WZNgKyZ-3">
          <mxGeometry relative="1" as="geometry">
            <mxPoint x="560" y="129.5" as="sourcePoint" />
            <mxPoint x="610" y="129.5" as="targetPoint" />
          </mxGeometry>
        </mxCell>
        <mxCell id="auY8IGYgyxqj8WZNgKyZ-24" value="&lt;div&gt;Usamos MLP (multi layer perceptron) PYTORCH&lt;/div&gt;" style="rounded=1;whiteSpace=wrap;html=1;" vertex="1" parent="1">
          <mxGeometry x="610" y="220" width="120" height="140" as="geometry" />
        </mxCell>
        <mxCell id="auY8IGYgyxqj8WZNgKyZ-25" value="" style="endArrow=classic;html=1;rounded=0;" edge="1" parent="1">
          <mxGeometry width="50" height="50" relative="1" as="geometry">
            <mxPoint x="669.5" y="160" as="sourcePoint" />
            <mxPoint x="669.5" y="220" as="targetPoint" />
          </mxGeometry>
        </mxCell>
        <mxCell id="auY8IGYgyxqj8WZNgKyZ-26" value="" style="edgeStyle=orthogonalEdgeStyle;rounded=0;orthogonalLoop=1;jettySize=auto;html=1;exitX=1;exitY=0.5;exitDx=0;exitDy=0;" edge="1" parent="1" source="auY8IGYgyxqj8WZNgKyZ-2">
          <mxGeometry relative="1" as="geometry">
            <mxPoint x="380" y="129.5" as="sourcePoint" />
            <mxPoint x="430" y="129.5" as="targetPoint" />
          </mxGeometry>
        </mxCell>
        <mxCell id="auY8IGYgyxqj8WZNgKyZ-27" value="" style="edgeStyle=orthogonalEdgeStyle;rounded=0;orthogonalLoop=1;jettySize=auto;html=1;entryX=0;entryY=0.5;entryDx=0;entryDy=0;" edge="1" parent="1" target="auY8IGYgyxqj8WZNgKyZ-2">
          <mxGeometry relative="1" as="geometry">
            <mxPoint x="190" y="129.5" as="sourcePoint" />
            <mxPoint x="230" y="129.5" as="targetPoint" />
          </mxGeometry>
        </mxCell>
        <mxCell id="auY8IGYgyxqj8WZNgKyZ-29" value="" style="edgeStyle=orthogonalEdgeStyle;rounded=0;orthogonalLoop=1;jettySize=auto;html=1;exitX=0.5;exitY=1;exitDx=0;exitDy=0;entryX=0.5;entryY=0;entryDx=0;entryDy=0;" edge="1" parent="1" source="auY8IGYgyxqj8WZNgKyZ-24" target="auY8IGYgyxqj8WZNgKyZ-4">
          <mxGeometry relative="1" as="geometry">
            <mxPoint x="650" y="420" as="sourcePoint" />
            <mxPoint x="670" y="450" as="targetPoint" />
          </mxGeometry>
        </mxCell>
        <mxCell id="auY8IGYgyxqj8WZNgKyZ-30" value="" style="edgeStyle=orthogonalEdgeStyle;rounded=0;orthogonalLoop=1;jettySize=auto;html=1;exitX=0.5;exitY=1;exitDx=0;exitDy=0;entryX=0.5;entryY=0;entryDx=0;entryDy=0;" edge="1" parent="1" source="auY8IGYgyxqj8WZNgKyZ-10" target="auY8IGYgyxqj8WZNgKyZ-16">
          <mxGeometry relative="1" as="geometry">
            <mxPoint x="640" y="670" as="sourcePoint" />
            <mxPoint x="690" y="670" as="targetPoint" />
          </mxGeometry>
        </mxCell>
        <mxCell id="auY8IGYgyxqj8WZNgKyZ-31" value="" style="edgeStyle=orthogonalEdgeStyle;rounded=0;orthogonalLoop=1;jettySize=auto;html=1;entryX=1;entryY=0;entryDx=0;entryDy=0;exitX=0.095;exitY=0.986;exitDx=0;exitDy=0;exitPerimeter=0;" edge="1" parent="1" source="auY8IGYgyxqj8WZNgKyZ-10" target="auY8IGYgyxqj8WZNgKyZ-15">
          <mxGeometry relative="1" as="geometry">
            <mxPoint x="609" y="640" as="sourcePoint" />
            <mxPoint x="609" y="670" as="targetPoint" />
          </mxGeometry>
        </mxCell>
        <mxCell id="auY8IGYgyxqj8WZNgKyZ-33" value="" style="edgeStyle=orthogonalEdgeStyle;rounded=0;orthogonalLoop=1;jettySize=auto;html=1;entryX=0;entryY=0;entryDx=0;entryDy=0;exitX=0.948;exitY=0.969;exitDx=0;exitDy=0;exitPerimeter=0;" edge="1" parent="1" source="auY8IGYgyxqj8WZNgKyZ-10" target="auY8IGYgyxqj8WZNgKyZ-17">
          <mxGeometry relative="1" as="geometry">
            <mxPoint x="803" y="641" as="sourcePoint" />
            <mxPoint x="770" y="680" as="targetPoint" />
          </mxGeometry>
        </mxCell>
        <mxCell id="auY8IGYgyxqj8WZNgKyZ-34" value="" style="endArrow=classic;html=1;rounded=0;" edge="1" parent="1">
          <mxGeometry width="50" height="50" relative="1" as="geometry">
            <mxPoint x="610" y="432.5" as="sourcePoint" />
            <mxPoint x="470" y="433" as="targetPoint" />
          </mxGeometry>
        </mxCell>
        <mxCell id="auY8IGYgyxqj8WZNgKyZ-35" value="&lt;b&gt;Conclusiones&lt;/b&gt;&amp;nbsp;" style="rounded=1;whiteSpace=wrap;html=1;" vertex="1" parent="1">
          <mxGeometry x="290" y="387.5" width="180" height="85" as="geometry" />
        </mxCell>
        <mxCell id="auY8IGYgyxqj8WZNgKyZ-36" value="" style="endArrow=classic;html=1;rounded=0;exitX=0;exitY=0.5;exitDx=0;exitDy=0;entryX=0.5;entryY=1;entryDx=0;entryDy=0;" edge="1" parent="1" source="auY8IGYgyxqj8WZNgKyZ-10" target="auY8IGYgyxqj8WZNgKyZ-35">
          <mxGeometry width="50" height="50" relative="1" as="geometry">
            <mxPoint x="360" y="640" as="sourcePoint" />
            <mxPoint x="360" y="695" as="targetPoint" />
            <Array as="points">
              <mxPoint x="380" y="585" />
            </Array>
          </mxGeometry>
        </mxCell>
      </root>
    </mxGraphModel>
  </diagram>
</mxfile>
